{"accessors" : [{"bufferView" : 0, "byteOffset" : 0, "componentType" : 5123, "count" : 146754, "type" : "SCALAR", "max" : [24460], "min" : [0]}, {"bufferView" : 1, "byteOffset" : 0, "componentType" : 5126, "count" : 24461, "type" : "VEC3", "max" : [5.84250020980835, 20.684099197387695, 1.9170000553131104], "min" : [-5.84250020980835, -0.05660000070929527, -1.8530999422073364], "name" : "POSITION"}, {"bufferView" : 1, "byteOffset" : 12, "componentType" : 5126, "count" : 24461, "type" : "VEC3", "max" : [0.9999287724494934, 0.9998253583908081, 0.9999948143959045], "min" : [-0.9999328255653381, -0.9999302625656128, -1.000002145767212], "name" : "NORMAL"}], "asset" : {"generator" : "Aspose.3D 25.3.0", "version" : "2.0"}, "buffers" : [{"uri" : "data:application/octet-stream;base64,", "byteLength" : 880580}], "bufferViews" : [{"buffer" : 0, "byteOffset" : 0, "byteLength" : 293508, "target" : 34963}, {"buffer" : 0, "byteOffset" : 293512, "byteLength" : 587064, "byteStride" : 24, "target" : 34962}], "meshes" : [{"primitives" : [{"attributes" : {"POSITION" : 1, "NORMAL" : 2}, "indices" : 0, "mode" : 4}], "name" : ""}], "nodes" : [{"mesh" : 0, "name" : "Group1"}], "scene" : 0, "scenes" : [{"nodes" : [0]}]}