{"scene":0,"asset":{"generator":"ImageToStl.com","version":"2.0"},"scenes":[{"name":"Scene","nodes":[0]}],"nodes":[{"name":"Node0","children":[1,2,3,4,5,6,7,8,9,10,11,12,13,14,15,16,17,18,19,20]},{"name":"Node1","mesh":0},{"name":"Node2","mesh":1},{"name":"Node3","mesh":2},{"name":"Node4","mesh":3},{"name":"Node5","mesh":4},{"name":"Node6","mesh":5},{"name":"Node7","mesh":6},{"name":"Node8","mesh":7},{"name":"Node9","mesh":8},{"name":"Node10","mesh":9},{"name":"Node11","mesh":10},{"name":"Node12","mesh":11},{"name":"Node13","mesh":12},{"name":"Node14","mesh":13},{"name":"Node15","mesh":14},{"name":"Node16","mesh":15},{"name":"Node17","mesh":16},{"name":"Node18","mesh":17},{"name":"Node19","mesh":18},{"name":"Node20","mesh":19}],"materials":[{"name":"Default_OBJ.001","pbrMetallicRoughness":{"baseColorFactor":[0.8,0.8,0.8,1.0],"metallicFactor":0.5,"roughnessFactor":0.968},"emissiveFactor":[0.0,0.0,0.0],"doubleSided":true}],"meshes":[{"name":"Mesh0","primitives":[{"indices":2,"material":0,"attributes":{"POSITION":0,"NORMAL":1}}]},{"name":"Mesh0","primitives":[{"indices":5,"material":0,"attributes":{"POSITION":3,"NORMAL":4}}]},{"name":"Mesh0","primitives":[{"indices":8,"material":0,"attributes":{"POSITION":6,"NORMAL":7}}]},{"name":"Mesh0","primitives":[{"indices":11,"material":0,"attributes":{"POSITION":9,"NORMAL":10}}]},{"name":"Mesh0","primitives":[{"indices":14,"material":0,"attributes":{"POSITION":12,"NORMAL":13}}]},{"name":"Mesh0","primitives":[{"indices":17,"material":0,"attributes":{"POSITION":15,"NORMAL":16}}]},{"name":"Mesh0","primitives":[{"indices":20,"material":0,"attributes":{"POSITION":18,"NORMAL":19}}]},{"name":"Mesh0","primitives":[{"indices":23,"material":0,"attributes":{"POSITION":21,"NORMAL":22}}]},{"name":"Mesh0","primitives":[{"indices":26,"material":0,"attributes":{"POSITION":24,"NORMAL":25}}]},{"name":"Mesh0","primitives":[{"indices":29,"material":0,"attributes":{"POSITION":27,"NORMAL":28}}]},{"name":"Mesh0","primitives":[{"indices":32,"material":0,"attributes":{"POSITION":30,"NORMAL":31}}]},{"name":"Mesh0","primitives":[{"indices":35,"material":0,"attributes":{"POSITION":33,"NORMAL":34}}]},{"name":"Mesh0","primitives":[{"indices":38,"material":0,"attributes":{"POSITION":36,"NORMAL":37}}]},{"name":"Mesh0","primitives":[{"indices":41,"material":0,"attributes":{"POSITION":39,"NORMAL":40}}]},{"name":"Mesh0","primitives":[{"indices":44,"material":0,"attributes":{"POSITION":42,"NORMAL":43}}]},{"name":"Mesh0","primitives":[{"indices":47,"material":0,"attributes":{"POSITION":45,"NORMAL":46}}]},{"name":"Mesh0","primitives":[{"indices":50,"material":0,"attributes":{"POSITION":48,"NORMAL":49}}]},{"name":"Mesh0","primitives":[{"indices":53,"material":0,"attributes":{"POSITION":51,"NORMAL":52}}]},{"name":"Mesh0","primitives":[{"indices":56,"material":0,"attributes":{"POSITION":54,"NORMAL":55}}]},{"name":"Mesh0","primitives":[{"indices":59,"material":0,"attributes":{"POSITION":57,"NORMAL":58}}]}],"accessors":[{"bufferView":0,"componentType":5126,"count":1483,"type":"VEC3","min":[-0.4808641,-1.1174247,2.6973534],"max":[0.5103512,0.1007666,3.9733136]},{"bufferView":1,"componentType":5126,"count":1483,"type":"VEC3"},{"bufferView":2,"componentType":5123,"count":8724,"type":"SCALAR"},{"bufferView":3,"componentType":5126,"count":265,"type":"VEC3","min":[-0.7264394,-0.727231,2.3017488],"max":[0.7278169,0.101809055,3.0710983]},{"bufferView":4,"componentType":5126,"count":265,"type":"VEC3"},{"bufferView":5,"componentType":5123,"count":1182,"type":"SCALAR"},{"bufferView":6,"componentType":5126,"count":122,"type":"VEC3","min":[-1.3258603,-0.5612374,1.4605273],"max":[-0.86955625,0.33401057,2.3871222]},{"bufferView":7,"componentType":5126,"count":122,"type":"VEC3"},{"bufferView":8,"componentType":5123,"count":525,"type":"SCALAR"},{"bufferView":9,"componentType":5126,"count":234,"type":"VEC3","min":[-2.0192068,-0.4866546,-0.40882623],"max":[-1.219477,0.32539874,0.87088567]},{"bufferView":10,"componentType":5126,"count":234,"type":"VEC3"},{"bufferView":11,"componentType":5123,"count":1227,"type":"SCALAR"},{"bufferView":12,"componentType":5126,"count":363,"type":"VEC3","min":[-2.0998404,-0.6652459,-1.3489742],"max":[-1.6510603,-0.139889,-0.36153227]},{"bufferView":13,"componentType":5126,"count":363,"type":"VEC3"},{"bufferView":14,"componentType":5123,"count":2088,"type":"SCALAR"},{"bufferView":15,"componentType":5126,"count":119,"type":"VEC3","min":[0.8421098,-0.56782913,1.5601966],"max":[1.3351489,0.39021495,2.4088807]},{"bufferView":16,"componentType":5126,"count":119,"type":"VEC3"},{"bufferView":17,"componentType":5123,"count":498,"type":"SCALAR"},{"bufferView":18,"componentType":5126,"count":230,"type":"VEC3","min":[1.2311774,-0.3722205,-0.39453423],"max":[2.0456202,0.41280514,0.8857705]},{"bufferView":19,"componentType":5126,"count":230,"type":"VEC3"},{"bufferView":20,"componentType":5123,"count":1206,"type":"SCALAR"},{"bufferView":21,"componentType":5126,"count":415,"type":"VEC3","min":[-0.99777925,-0.97047794,-5.068575],"max":[0.9895171,0.41714537,0.11937797]},{"bufferView":22,"componentType":5126,"count":415,"type":"VEC3"},{"bufferView":23,"componentType":5123,"count":1881,"type":"SCALAR"},{"bufferView":24,"componentType":5126,"count":184,"type":"VEC3","min":[0.8726157,-0.39842045,0.63695085],"max":[1.6942577,0.41106164,1.7563081]},{"bufferView":25,"componentType":5126,"count":184,"type":"VEC3"},{"bufferView":26,"componentType":5123,"count":912,"type":"SCALAR"},{"bufferView":27,"componentType":5126,"count":187,"type":"VEC3","min":[-1.6887788,-0.42335832,0.6443098],"max":[-0.8842336,0.3244703,1.721216]},{"bufferView":28,"componentType":5126,"count":187,"type":"VEC3"},{"bufferView":29,"componentType":5123,"count":876,"type":"SCALAR"},{"bufferView":30,"componentType":5126,"count":852,"type":"VEC3","min":[-0.9195685,-0.9276768,-0.3119955],"max":[0.9271951,0.49827045,2.55626]},{"bufferView":31,"componentType":5126,"count":852,"type":"VEC3"},{"bufferView":32,"componentType":5123,"count":4257,"type":"SCALAR"},{"bufferView":33,"componentType":5126,"count":389,"type":"VEC3","min":[-0.95525044,-0.8531083,-2.5298305],"max":[0.9894012,0.22278556,-1.0942084]},{"bufferView":34,"componentType":5126,"count":389,"type":"VEC3"},{"bufferView":35,"componentType":5123,"count":1830,"type":"SCALAR"},{"bufferView":36,"componentType":5126,"count":196,"type":"VEC3","min":[-0.8006932,-0.614998,-3.062199],"max":[0.82168376,0.16114926,-2.371541]},{"bufferView":37,"componentType":5126,"count":196,"type":"VEC3"},{"bufferView":38,"componentType":5123,"count":792,"type":"SCALAR"},{"bufferView":39,"componentType":5126,"count":356,"type":"VEC3","min":[0.4027401,-1.1546962,-5.0879583],"max":[1.0604812,0.24854994,-4.4850464]},{"bufferView":40,"componentType":5126,"count":356,"type":"VEC3"},{"bufferView":41,"componentType":5123,"count":2046,"type":"SCALAR"},{"bufferView":42,"componentType":5126,"count":214,"type":"VEC3","min":[-0.8845274,-0.39592618,-4.4956293],"max":[-0.22966897,0.32753962,-2.5533826]},{"bufferView":43,"componentType":5126,"count":214,"type":"VEC3"},{"bufferView":44,"componentType":5123,"count":1107,"type":"SCALAR"},{"bufferView":45,"componentType":5126,"count":374,"type":"VEC3","min":[-0.95920545,-1.1905291,-5.0880756],"max":[-0.3838725,0.21787304,-4.484241]},{"bufferView":46,"componentType":5126,"count":374,"type":"VEC3"},{"bufferView":47,"componentType":5123,"count":2061,"type":"SCALAR"},{"bufferView":48,"componentType":5126,"count":219,"type":"VEC3","min":[0.243287,-0.36758208,-4.4963737],"max":[0.891843,0.36071077,-2.5300584]},{"bufferView":49,"componentType":5126,"count":219,"type":"VEC3"},{"bufferView":50,"componentType":5123,"count":1131,"type":"SCALAR"},{"bufferView":51,"componentType":5126,"count":389,"type":"VEC3","min":[-0.9552484,-0.853102,-2.5298307],"max":[0.9894032,0.22279185,-1.0942084]},{"bufferView":52,"componentType":5126,"count":389,"type":"VEC3"},{"bufferView":53,"componentType":5123,"count":1830,"type":"SCALAR"},{"bufferView":54,"componentType":5126,"count":367,"type":"VEC3","min":[1.6938326,-0.55372417,-1.3488631],"max":[2.1293375,-0.028086275,-0.3533563]},{"bufferView":55,"componentType":5126,"count":367,"type":"VEC3"},{"bufferView":56,"componentType":5123,"count":2112,"type":"SCALAR"},{"bufferView":57,"componentType":5126,"count":196,"type":"VEC3","min":[-0.8006903,-0.61499226,-3.0621994],"max":[0.8216866,0.16115499,-2.3715413]},{"bufferView":58,"componentType":5126,"count":196,"type":"VEC3"},{"bufferView":59,"componentType":5123,"count":792,"type":"SCALAR"}],"bufferViews":[{"target":34962,"buffer":0,"byteLength":17796,"byteOffset":0},{"target":34962,"buffer":0,"byteLength":17796,"byteOffset":17796},{"target":34963,"buffer":0,"byteLength":17448,"byteOffset":35592},{"target":34962,"buffer":0,"byteLength":3180,"byteOffset":53040},{"target":34962,"buffer":0,"byteLength":3180,"byteOffset":56220},{"target":34963,"buffer":0,"byteLength":2364,"byteOffset":59400},{"target":34962,"buffer":0,"byteLength":1464,"byteOffset":61764},{"target":34962,"buffer":0,"byteLength":1464,"byteOffset":63228},{"target":34963,"buffer":0,"byteLength":1050,"byteOffset":64692},{"target":34962,"buffer":0,"byteLength":2808,"byteOffset":65744},{"target":34962,"buffer":0,"byteLength":2808,"byteOffset":68552},{"target":34963,"buffer":0,"byteLength":2454,"byteOffset":71360},{"target":34962,"buffer":0,"byteLength":4356,"byteOffset":73816},{"target":34962,"buffer":0,"byteLength":4356,"byteOffset":78172},{"target":34963,"buffer":0,"byteLength":4176,"byteOffset":82528},{"target":34962,"buffer":0,"byteLength":1428,"byteOffset":86704},{"target":34962,"buffer":0,"byteLength":1428,"byteOffset":88132},{"target":34963,"buffer":0,"byteLength":996,"byteOffset":89560},{"target":34962,"buffer":0,"byteLength":2760,"byteOffset":90556},{"target":34962,"buffer":0,"byteLength":2760,"byteOffset":93316},{"target":34963,"buffer":0,"byteLength":2412,"byteOffset":96076},{"target":34962,"buffer":0,"byteLength":4980,"byteOffset":98488},{"target":34962,"buffer":0,"byteLength":4980,"byteOffset":103468},{"target":34963,"buffer":0,"byteLength":3762,"byteOffset":108448},{"target":34962,"buffer":0,"byteLength":2208,"byteOffset":112212},{"target":34962,"buffer":0,"byteLength":2208,"byteOffset":114420},{"target":34963,"buffer":0,"byteLength":1824,"byteOffset":116628},{"target":34962,"buffer":0,"byteLength":2244,"byteOffset":118452},{"target":34962,"buffer":0,"byteLength":2244,"byteOffset":120696},{"target":34963,"buffer":0,"byteLength":1752,"byteOffset":122940},{"target":34962,"buffer":0,"byteLength":10224,"byteOffset":124692},{"target":34962,"buffer":0,"byteLength":10224,"byteOffset":134916},{"target":34963,"buffer":0,"byteLength":8514,"byteOffset":145140},{"target":34962,"buffer":0,"byteLength":4668,"byteOffset":153656},{"target":34962,"buffer":0,"byteLength":4668,"byteOffset":158324},{"target":34963,"buffer":0,"byteLength":3660,"byteOffset":162992},{"target":34962,"buffer":0,"byteLength":2352,"byteOffset":166652},{"target":34962,"buffer":0,"byteLength":2352,"byteOffset":169004},{"target":34963,"buffer":0,"byteLength":1584,"byteOffset":171356},{"target":34962,"buffer":0,"byteLength":4272,"byteOffset":172940},{"target":34962,"buffer":0,"byteLength":4272,"byteOffset":177212},{"target":34963,"buffer":0,"byteLength":4092,"byteOffset":181484},{"target":34962,"buffer":0,"byteLength":2568,"byteOffset":185576},{"target":34962,"buffer":0,"byteLength":2568,"byteOffset":188144},{"target":34963,"buffer":0,"byteLength":2214,"byteOffset":190712},{"target":34962,"buffer":0,"byteLength":4488,"byteOffset":192928},{"target":34962,"buffer":0,"byteLength":4488,"byteOffset":197416},{"target":34963,"buffer":0,"byteLength":4122,"byteOffset":201904},{"target":34962,"buffer":0,"byteLength":2628,"byteOffset":206028},{"target":34962,"buffer":0,"byteLength":2628,"byteOffset":208656},{"target":34963,"buffer":0,"byteLength":2262,"byteOffset":211284},{"target":34962,"buffer":0,"byteLength":4668,"byteOffset":213548},{"target":34962,"buffer":0,"byteLength":4668,"byteOffset":218216},{"target":34963,"buffer":0,"byteLength":3660,"byteOffset":222884},{"target":34962,"buffer":0,"byteLength":4404,"byteOffset":226544},{"target":34962,"buffer":0,"byteLength":4404,"byteOffset":230948},{"target":34963,"buffer":0,"byteLength":4224,"byteOffset":235352},{"target":34962,"buffer":0,"byteLength":2352,"byteOffset":239576},{"target":34962,"buffer":0,"byteLength":2352,"byteOffset":241928},{"target":34963,"buffer":0,"byteLength":1584,"byteOffset":244280}],"buffers":[{"byteLength":245864,"uri":"data:application/octet-stream;base64,"}]}