{"scene":0,"asset":{"generator":"ImageToStl.com","version":"2.0"},"scenes":[{"name":"Scene","nodes":[0]}],"nodes":[{"name":"Node0","children":[1,2,3,4,5,6,7,8,9,10,11,12,13,14,15,16,17,18,19,20,21,22,23,24,25,26]},{"name":"Node1","mesh":0},{"name":"Node2","mesh":1},{"name":"Node3","mesh":2},{"name":"Node4","mesh":3},{"name":"Node5","mesh":4},{"name":"Node6","mesh":5},{"name":"Node7","mesh":6},{"name":"Node8","mesh":7},{"name":"Node9","mesh":8},{"name":"Node10","mesh":9},{"name":"Node11","mesh":10},{"name":"Node12","mesh":11},{"name":"Node13","mesh":12},{"name":"Node14","mesh":13},{"name":"Node15","mesh":14},{"name":"Node16","mesh":15},{"name":"Node17","mesh":16},{"name":"Node18","mesh":17},{"name":"Node19","mesh":18},{"name":"Node20","mesh":19},{"name":"Node21","mesh":20},{"name":"Node22","mesh":21},{"name":"Node23","mesh":22},{"name":"Node24","mesh":23},{"name":"Node25","mesh":24},{"name":"Node26","mesh":25}],"materials":[{"name":"Default_OBJ.001","pbrMetallicRoughness":{"baseColorFactor":[0.8,0.8,0.8,1.0],"metallicFactor":0.5,"roughnessFactor":0.968},"emissiveFactor":[0.0,0.0,0.0],"doubleSided":true},{"name":"Black","pbrMetallicRoughness":{"baseColorFactor":[0.026365,0.026365,0.026365,1.0],"metallicFactor":0.5,"roughnessFactor":1.0},"emissiveFactor":[0.0,0.0,0.0],"doubleSided":true},{"name":"Skin-in.004","pbrMetallicRoughness":{"baseColorFactor":[0.799103,0.799103,0.799103,1.0],"metallicFactor":0.5,"roughnessFactor":0.8704},"emissiveFactor":[0.0,0.0,0.0],"doubleSided":true},{"name":"Skin-5.002","pbrMetallicRoughness":{"baseColorFactor":[0.799103,0.799103,0.799103,1.0],"metallicFactor":0.5,"roughnessFactor":0.8704},"emissiveFactor":[0.0,0.0,0.0],"doubleSided":true},{"name":"Skin-in.003","pbrMetallicRoughness":{"baseColorFactor":[0.799103,0.799103,0.799103,1.0],"metallicFactor":0.5,"roughnessFactor":0.8704},"emissiveFactor":[0.0,0.0,0.0],"doubleSided":true},{"name":"Skin-5.001","pbrMetallicRoughness":{"baseColorFactor":[0.799103,0.799103,0.799103,1.0],"metallicFactor":0.5,"roughnessFactor":0.8704},"emissiveFactor":[0.0,0.0,0.0],"doubleSided":true},{"name":"x1","pbrMetallicRoughness":{"baseColorFactor":[0.0,0.0,0.0,1.0],"metallicFactor":0.0,"roughnessFactor":1.0},"doubleSided":true}],"meshes":[{"name":"Mesh0","primitives":[{"indices":2,"material":0,"attributes":{"POSITION":0,"NORMAL":1}}]},{"name":"Mesh0","primitives":[{"indices":5,"material":0,"attributes":{"POSITION":3,"NORMAL":4}}]},{"name":"Mesh0","primitives":[{"indices":8,"material":0,"attributes":{"POSITION":6,"NORMAL":7}}]},{"name":"Mesh0","primitives":[{"indices":11,"material":0,"attributes":{"POSITION":9,"NORMAL":10}}]},{"name":"Mesh0","primitives":[{"indices":14,"material":0,"attributes":{"POSITION":12,"NORMAL":13}}]},{"name":"Mesh0","primitives":[{"indices":17,"material":0,"attributes":{"POSITION":15,"NORMAL":16}}]},{"name":"Mesh0","primitives":[{"indices":20,"material":0,"attributes":{"POSITION":18,"NORMAL":19}}]},{"name":"Mesh0","primitives":[{"indices":23,"material":0,"attributes":{"POSITION":21,"NORMAL":22}}]},{"name":"Mesh0","primitives":[{"indices":26,"material":0,"attributes":{"POSITION":24,"NORMAL":25}}]},{"name":"Mesh0","primitives":[{"indices":29,"material":0,"attributes":{"POSITION":27,"NORMAL":28}}]},{"name":"Mesh0","primitives":[{"indices":32,"material":0,"attributes":{"POSITION":30,"NORMAL":31}}]},{"name":"Mesh0","primitives":[{"indices":35,"material":0,"attributes":{"POSITION":33,"NORMAL":34}}]},{"name":"Mesh0","primitives":[{"indices":38,"material":0,"attributes":{"POSITION":36,"NORMAL":37}}]},{"name":"Mesh0","primitives":[{"indices":41,"material":0,"attributes":{"POSITION":39,"NORMAL":40}}]},{"name":"Mesh0","primitives":[{"indices":44,"material":0,"attributes":{"POSITION":42,"NORMAL":43}}]},{"name":"Mesh0","primitives":[{"indices":47,"material":0,"attributes":{"POSITION":45,"NORMAL":46}}]},{"name":"Mesh0","primitives":[{"indices":50,"material":0,"attributes":{"POSITION":48,"NORMAL":49}}]},{"name":"Mesh0","primitives":[{"indices":53,"material":0,"attributes":{"POSITION":51,"NORMAL":52}}]},{"name":"Mesh0","primitives":[{"indices":56,"material":0,"attributes":{"POSITION":54,"NORMAL":55}}]},{"name":"Mesh0","primitives":[{"indices":59,"material":0,"attributes":{"POSITION":57,"NORMAL":58}}]},{"name":"Mesh0","primitives":[{"indices":63,"material":1,"attributes":{"POSITION":60,"NORMAL":61,"TEXCOORD_0":62}}]},{"name":"Mesh0","primitives":[{"indices":66,"material":0,"attributes":{"POSITION":64,"NORMAL":65}}]},{"name":"Mesh0","primitives":[{"indices":69,"material":0,"attributes":{"POSITION":67,"NORMAL":68}}]},{"name":"Mesh0","primitives":[{"indices":73,"material":2,"attributes":{"POSITION":70,"NORMAL":71,"TEXCOORD_0":72}},{"indices":74,"material":3,"attributes":{"POSITION":70,"NORMAL":71,"TEXCOORD_0":72}}]},{"name":"Mesh0","primitives":[{"indices":78,"material":4,"attributes":{"POSITION":75,"NORMAL":76,"TEXCOORD_0":77}},{"indices":79,"material":5,"attributes":{"POSITION":75,"NORMAL":76,"TEXCOORD_0":77}}]},{"name":"Mesh0","primitives":[{"indices":82,"material":6,"attributes":{"POSITION":80,"NORMAL":81}}]}],"accessors":[{"bufferView":0,"componentType":5126,"count":96,"type":"VEC3","min":[0.46840182,0.006139405,3.5123944],"max":[0.6040324,0.23409115,3.8342915]},{"bufferView":1,"componentType":5126,"count":96,"type":"VEC3"},{"bufferView":2,"componentType":5123,"count":426,"type":"SCALAR"},{"bufferView":3,"componentType":5126,"count":359,"type":"VEC3","min":[1.9523602,-0.14177674,-1.6183786],"max":[2.4586518,0.453838,-0.5290168]},{"bufferView":4,"componentType":5126,"count":359,"type":"VEC3"},{"bufferView":5,"componentType":5123,"count":2058,"type":"SCALAR"},{"bufferView":6,"componentType":5126,"count":272,"type":"VEC3","min":[-0.77181,-0.2993823,2.58009],"max":[0.8455615,0.6539949,3.4534972]},{"bufferView":7,"componentType":5126,"count":272,"type":"VEC3"},{"bufferView":8,"componentType":5123,"count":1218,"type":"SCALAR"},{"bufferView":9,"componentType":5126,"count":684,"type":"VEC3","min":[-1.1408883,-0.79186076,-5.898937],"max":[1.2163427,0.8192129,-5.271472]},{"bufferView":10,"componentType":5126,"count":684,"type":"VEC3"},{"bufferView":11,"componentType":5123,"count":3924,"type":"SCALAR"},{"bufferView":12,"componentType":5126,"count":359,"type":"VEC3","min":[-2.3847306,-0.14720426,-1.618506],"max":[-1.8783884,0.44751707,-0.5286374]},{"bufferView":13,"componentType":5126,"count":359,"type":"VEC3"},{"bufferView":14,"componentType":5123,"count":2058,"type":"SCALAR"},{"bufferView":15,"componentType":5126,"count":538,"type":"VEC3","min":[-0.9921776,0.12496338,-0.27890313],"max":[1.0617204,1.1052909,2.858964]},{"bufferView":16,"componentType":5126,"count":538,"type":"VEC3"},{"bufferView":17,"componentType":5123,"count":2610,"type":"SCALAR"},{"bufferView":18,"componentType":5126,"count":303,"type":"VEC3","min":[-1.0755783,-0.48618537,-1.3139114],"max":[1.1488237,1.0167964,-0.010237992]},{"bufferView":19,"componentType":5126,"count":303,"type":"VEC3"},{"bufferView":20,"componentType":5123,"count":1428,"type":"SCALAR"},{"bufferView":21,"componentType":5126,"count":393,"type":"VEC3","min":[-1.0772299,-0.4052554,-3.1073442],"max":[1.1504587,0.79178405,-1.2616402]},{"bufferView":22,"componentType":5126,"count":393,"type":"VEC3"},{"bufferView":23,"componentType":5123,"count":2004,"type":"SCALAR"},{"bufferView":24,"componentType":5126,"count":142,"type":"VEC3","min":[-0.89093125,-0.08756021,-3.4815114],"max":[0.963801,0.6952206,-3.0098536]},{"bufferView":25,"componentType":5126,"count":142,"type":"VEC3"},{"bufferView":26,"componentType":5123,"count":516,"type":"SCALAR"},{"bufferView":27,"componentType":5126,"count":468,"type":"VEC3","min":[-0.9809606,0.08443079,-5.271472],"max":[1.0534289,0.9474792,-3.0997677]},{"bufferView":28,"componentType":5126,"count":468,"type":"VEC3"},{"bufferView":29,"componentType":5123,"count":2430,"type":"SCALAR"},{"bufferView":30,"componentType":5126,"count":278,"type":"VEC3","min":[-0.9899757,-0.45594758,1.1785713],"max":[1.0595702,0.2811877,2.7310183]},{"bufferView":31,"componentType":5126,"count":278,"type":"VEC3"},{"bufferView":32,"componentType":5123,"count":1260,"type":"SCALAR"},{"bufferView":33,"componentType":5126,"count":201,"type":"VEC3","min":[-0.92174095,-0.50728285,-0.5034631],"max":[0.9947321,0.20084015,1.182989]},{"bufferView":34,"componentType":5126,"count":201,"type":"VEC3"},{"bufferView":35,"componentType":5123,"count":924,"type":"SCALAR"},{"bufferView":36,"componentType":5126,"count":174,"type":"VEC3","min":[1.0507752,-0.095175475,0.77941924],"max":[1.9233865,0.9657724,2.0397315]},{"bufferView":37,"componentType":5126,"count":174,"type":"VEC3"},{"bufferView":38,"componentType":5123,"count":837,"type":"SCALAR"},{"bufferView":39,"componentType":5126,"count":165,"type":"VEC3","min":[-1.8414904,0.080784634,0.76333493],"max":[-0.98815966,0.9622606,1.9223616]},{"bufferView":40,"componentType":5126,"count":165,"type":"VEC3"},{"bufferView":41,"componentType":5123,"count":792,"type":"SCALAR"},{"bufferView":42,"componentType":5126,"count":108,"type":"VEC3","min":[1.0140073,-0.13221373,1.8000985],"max":[1.539258,0.9570974,2.682528]},{"bufferView":43,"componentType":5126,"count":108,"type":"VEC3"},{"bufferView":44,"componentType":5123,"count":453,"type":"SCALAR"},{"bufferView":45,"componentType":5126,"count":118,"type":"VEC3","min":[-1.4856025,-0.12609404,1.6558744],"max":[-0.9552106,0.9515153,2.6772933]},{"bufferView":46,"componentType":5126,"count":118,"type":"VEC3"},{"bufferView":47,"componentType":5123,"count":498,"type":"SCALAR"},{"bufferView":48,"componentType":5126,"count":74,"type":"VEC3","min":[-1.9223185,0.33972687,0.6263996],"max":[-1.3255725,0.9725843,1.0576584]},{"bufferView":49,"componentType":5126,"count":74,"type":"VEC3"},{"bufferView":50,"componentType":5123,"count":267,"type":"SCALAR"},{"bufferView":51,"componentType":5126,"count":242,"type":"VEC3","min":[-2.299102,0.04428631,-0.55939895],"max":[-1.3596131,0.9316799,0.9367158]},{"bufferView":52,"componentType":5126,"count":242,"type":"VEC3"},{"bufferView":53,"componentType":5123,"count":1266,"type":"SCALAR"},{"bufferView":54,"componentType":5126,"count":71,"type":"VEC3","min":[1.3900151,0.37139365,0.6428186],"max":[1.9774976,0.9765498,1.0494939]},{"bufferView":55,"componentType":5126,"count":71,"type":"VEC3"},{"bufferView":56,"componentType":5123,"count":258,"type":"SCALAR"},{"bufferView":57,"componentType":5126,"count":242,"type":"VEC3","min":[1.4333637,0.049252048,-0.5597605],"max":[2.372784,0.94711196,0.9612756]},{"bufferView":58,"componentType":5126,"count":242,"type":"VEC3"},{"bufferView":59,"componentType":5123,"count":1269,"type":"SCALAR"},{"bufferView":60,"componentType":5126,"count":8281,"type":"VEC3","min":[-0.6321332,-0.512684,3.3898096],"max":[0.5891682,0.89339256,4.749343]},{"bufferView":61,"componentType":5126,"count":8281,"type":"VEC3"},{"bufferView":62,"componentType":5126,"count":8281,"type":"VEC2"},{"bufferView":63,"componentType":5123,"count":148986,"type":"SCALAR"},{"bufferView":64,"componentType":5126,"count":1474,"type":"VEC3","min":[-0.45145229,-0.72757053,3.0288801],"max":[0.521526,0.66727644,4.4743195]},{"bufferView":65,"componentType":5126,"count":1474,"type":"VEC3"},{"bufferView":66,"componentType":5123,"count":8391,"type":"SCALAR"},{"bufferView":67,"componentType":5126,"count":103,"type":"VEC3","min":[-0.5312804,0.0071163476,3.5019424],"max":[-0.39294073,0.24580938,3.8274424]},{"bufferView":68,"componentType":5126,"count":103,"type":"VEC3"},{"bufferView":69,"componentType":5123,"count":453,"type":"SCALAR"},{"bufferView":70,"componentType":5126,"count":42,"type":"VEC3","min":[0.1175423,-0.5826547,3.8609877],"max":[0.39299077,-0.443921,3.947483]},{"bufferView":71,"componentType":5126,"count":42,"type":"VEC3"},{"bufferView":72,"componentType":5126,"count":42,"type":"VEC2"},{"bufferView":73,"componentType":5123,"count":360,"type":"SCALAR"},{"bufferView":74,"componentType":5123,"count":108,"type":"SCALAR"},{"bufferView":75,"componentType":5126,"count":42,"type":"VEC3","min":[-0.2938101,-0.577451,3.881744],"max":[-0.018193811,-0.43407974,3.9463053]},{"bufferView":76,"componentType":5126,"count":42,"type":"VEC3"},{"bufferView":77,"componentType":5126,"count":42,"type":"VEC2"},{"bufferView":78,"componentType":5123,"count":360,"type":"SCALAR"},{"bufferView":79,"componentType":5123,"count":108,"type":"SCALAR"},{"bufferView":80,"componentType":5126,"count":238,"type":"VEC3","min":[-0.90406287,0.26460373,-5.6706495],"max":[0.9936737,0.67266464,-5.2654223]},{"bufferView":81,"componentType":5126,"count":238,"type":"VEC3"},{"bufferView":82,"componentType":5123,"count":1404,"type":"SCALAR"}],"bufferViews":[{"target":34962,"buffer":0,"byteLength":1152,"byteOffset":0},{"target":34962,"buffer":0,"byteLength":1152,"byteOffset":1152},{"target":34963,"buffer":0,"byteLength":852,"byteOffset":2304},{"target":34962,"buffer":0,"byteLength":4308,"byteOffset":3156},{"target":34962,"buffer":0,"byteLength":4308,"byteOffset":7464},{"target":34963,"buffer":0,"byteLength":4116,"byteOffset":11772},{"target":34962,"buffer":0,"byteLength":3264,"byteOffset":15888},{"target":34962,"buffer":0,"byteLength":3264,"byteOffset":19152},{"target":34963,"buffer":0,"byteLength":2436,"byteOffset":22416},{"target":34962,"buffer":0,"byteLength":8208,"byteOffset":24852},{"target":34962,"buffer":0,"byteLength":8208,"byteOffset":33060},{"target":34963,"buffer":0,"byteLength":7848,"byteOffset":41268},{"target":34962,"buffer":0,"byteLength":4308,"byteOffset":49116},{"target":34962,"buffer":0,"byteLength":4308,"byteOffset":53424},{"target":34963,"buffer":0,"byteLength":4116,"byteOffset":57732},{"target":34962,"buffer":0,"byteLength":6456,"byteOffset":61848},{"target":34962,"buffer":0,"byteLength":6456,"byteOffset":68304},{"target":34963,"buffer":0,"byteLength":5220,"byteOffset":74760},{"target":34962,"buffer":0,"byteLength":3636,"byteOffset":79980},{"target":34962,"buffer":0,"byteLength":3636,"byteOffset":83616},{"target":34963,"buffer":0,"byteLength":2856,"byteOffset":87252},{"target":34962,"buffer":0,"byteLength":4716,"byteOffset":90108},{"target":34962,"buffer":0,"byteLength":4716,"byteOffset":94824},{"target":34963,"buffer":0,"byteLength":4008,"byteOffset":99540},{"target":34962,"buffer":0,"byteLength":1704,"byteOffset":103548},{"target":34962,"buffer":0,"byteLength":1704,"byteOffset":105252},{"target":34963,"buffer":0,"byteLength":1032,"byteOffset":106956},{"target":34962,"buffer":0,"byteLength":5616,"byteOffset":107988},{"target":34962,"buffer":0,"byteLength":5616,"byteOffset":113604},{"target":34963,"buffer":0,"byteLength":4860,"byteOffset":119220},{"target":34962,"buffer":0,"byteLength":3336,"byteOffset":124080},{"target":34962,"buffer":0,"byteLength":3336,"byteOffset":127416},{"target":34963,"buffer":0,"byteLength":2520,"byteOffset":130752},{"target":34962,"buffer":0,"byteLength":2412,"byteOffset":133272},{"target":34962,"buffer":0,"byteLength":2412,"byteOffset":135684},{"target":34963,"buffer":0,"byteLength":1848,"byteOffset":138096},{"target":34962,"buffer":0,"byteLength":2088,"byteOffset":139944},{"target":34962,"buffer":0,"byteLength":2088,"byteOffset":142032},{"target":34963,"buffer":0,"byteLength":1674,"byteOffset":144120},{"target":34962,"buffer":0,"byteLength":1980,"byteOffset":145796},{"target":34962,"buffer":0,"byteLength":1980,"byteOffset":147776},{"target":34963,"buffer":0,"byteLength":1584,"byteOffset":149756},{"target":34962,"buffer":0,"byteLength":1296,"byteOffset":151340},{"target":34962,"buffer":0,"byteLength":1296,"byteOffset":152636},{"target":34963,"buffer":0,"byteLength":906,"byteOffset":153932},{"target":34962,"buffer":0,"byteLength":1416,"byteOffset":154840},{"target":34962,"buffer":0,"byteLength":1416,"byteOffset":156256},{"target":34963,"buffer":0,"byteLength":996,"byteOffset":157672},{"target":34962,"buffer":0,"byteLength":888,"byteOffset":158668},{"target":34962,"buffer":0,"byteLength":888,"byteOffset":159556},{"target":34963,"buffer":0,"byteLength":534,"byteOffset":160444},{"target":34962,"buffer":0,"byteLength":2904,"byteOffset":160980},{"target":34962,"buffer":0,"byteLength":2904,"byteOffset":163884},{"target":34963,"buffer":0,"byteLength":2532,"byteOffset":166788},{"target":34962,"buffer":0,"byteLength":852,"byteOffset":169320},{"target":34962,"buffer":0,"byteLength":852,"byteOffset":170172},{"target":34963,"buffer":0,"byteLength":516,"byteOffset":171024},{"target":34962,"buffer":0,"byteLength":2904,"byteOffset":171540},{"target":34962,"buffer":0,"byteLength":2904,"byteOffset":174444},{"target":34963,"buffer":0,"byteLength":2538,"byteOffset":177348},{"target":34962,"buffer":0,"byteLength":99372,"byteOffset":179888},{"target":34962,"buffer":0,"byteLength":99372,"byteOffset":279260},{"target":34962,"buffer":0,"byteLength":66248,"byteOffset":378632},{"target":34963,"buffer":0,"byteLength":297972,"byteOffset":444880},{"target":34962,"buffer":0,"byteLength":17688,"byteOffset":742852},{"target":34962,"buffer":0,"byteLength":17688,"byteOffset":760540},{"target":34963,"buffer":0,"byteLength":16782,"byteOffset":778228},{"target":34962,"buffer":0,"byteLength":1236,"byteOffset":795012},{"target":34962,"buffer":0,"byteLength":1236,"byteOffset":796248},{"target":34963,"buffer":0,"byteLength":906,"byteOffset":797484},{"target":34962,"buffer":0,"byteLength":504,"byteOffset":798392},{"target":34962,"buffer":0,"byteLength":504,"byteOffset":798896},{"target":34962,"buffer":0,"byteLength":336,"byteOffset":799400},{"target":34963,"buffer":0,"byteLength":720,"byteOffset":799736},{"target":34963,"buffer":0,"byteLength":216,"byteOffset":800456},{"target":34962,"buffer":0,"byteLength":504,"byteOffset":800672},{"target":34962,"buffer":0,"byteLength":504,"byteOffset":801176},{"target":34962,"buffer":0,"byteLength":336,"byteOffset":801680},{"target":34963,"buffer":0,"byteLength":720,"byteOffset":802016},{"target":34963,"buffer":0,"byteLength":216,"byteOffset":802736},{"target":34962,"buffer":0,"byteLength":2856,"byteOffset":802952},{"target":34962,"buffer":0,"byteLength":2856,"byteOffset":805808},{"target":34963,"buffer":0,"byteLength":2808,"byteOffset":808664}],"buffers":[{"byteLength":811472,"uri":"data:application/octet-stream;base64,"}]}