{"scene":0,"asset":{"generator":"ImageToStl.com","version":"2.0"},"scenes":[{"name":"Scene","nodes":[0]}],"nodes":[{"name":"Node0","children":[1,2,3,4,5,6,7,8,9,10,11,12,13,14,15,16,17,18]},{"name":"Node1","mesh":0},{"name":"Node2","mesh":1},{"name":"Node3","mesh":2},{"name":"Node4","mesh":3},{"name":"Node5","mesh":4},{"name":"Node6","mesh":5},{"name":"Node7","mesh":6},{"name":"Node8","mesh":7},{"name":"Node9","mesh":8},{"name":"Node10","mesh":9},{"name":"Node11","mesh":10},{"name":"Node12","mesh":11},{"name":"Node13","mesh":12},{"name":"Node14","mesh":13},{"name":"Node15","mesh":14},{"name":"Node16","mesh":15},{"name":"Node17","mesh":16},{"name":"Node18","mesh":17}],"materials":[{"name":"Default_OBJ.001","pbrMetallicRoughness":{"baseColorFactor":[0.8,0.8,0.8,1.0],"metallicFactor":0.5,"roughnessFactor":0.968},"emissiveFactor":[0.0,0.0,0.0],"doubleSided":true}],"meshes":[{"name":"Mesh0","primitives":[{"indices":2,"material":0,"attributes":{"POSITION":0,"NORMAL":1}}]},{"name":"Mesh0","primitives":[{"indices":5,"material":0,"attributes":{"POSITION":3,"NORMAL":4}}]},{"name":"Mesh0","primitives":[{"indices":8,"material":0,"attributes":{"POSITION":6,"NORMAL":7}}]},{"name":"Mesh0","primitives":[{"indices":11,"material":0,"attributes":{"POSITION":9,"NORMAL":10}}]},{"name":"Mesh0","primitives":[{"indices":14,"material":0,"attributes":{"POSITION":12,"NORMAL":13}}]},{"name":"Mesh0","primitives":[{"indices":17,"material":0,"attributes":{"POSITION":15,"NORMAL":16}}]},{"name":"Mesh0","primitives":[{"indices":20,"material":0,"attributes":{"POSITION":18,"NORMAL":19}}]},{"name":"Mesh0","primitives":[{"indices":23,"material":0,"attributes":{"POSITION":21,"NORMAL":22}}]},{"name":"Mesh0","primitives":[{"indices":26,"material":0,"attributes":{"POSITION":24,"NORMAL":25}}]},{"name":"Mesh0","primitives":[{"indices":29,"material":0,"attributes":{"POSITION":27,"NORMAL":28}}]},{"name":"Mesh0","primitives":[{"indices":32,"material":0,"attributes":{"POSITION":30,"NORMAL":31}}]},{"name":"Mesh0","primitives":[{"indices":35,"material":0,"attributes":{"POSITION":33,"NORMAL":34}}]},{"name":"Mesh0","primitives":[{"indices":38,"material":0,"attributes":{"POSITION":36,"NORMAL":37}}]},{"name":"Mesh0","primitives":[{"indices":41,"material":0,"attributes":{"POSITION":39,"NORMAL":40}}]},{"name":"Mesh0","primitives":[{"indices":44,"material":0,"attributes":{"POSITION":42,"NORMAL":43}}]},{"name":"Mesh0","primitives":[{"indices":47,"material":0,"attributes":{"POSITION":45,"NORMAL":46}}]},{"name":"Mesh0","primitives":[{"indices":50,"material":0,"attributes":{"POSITION":48,"NORMAL":49}}]},{"name":"Mesh0","primitives":[{"indices":53,"material":0,"attributes":{"POSITION":51,"NORMAL":52}}]}],"accessors":[{"bufferView":0,"componentType":5126,"count":357,"type":"VEC3","min":[0.6607647,-0.17893991,-0.6272002],"max":[0.8514271,0.04473511,-0.21385358]},{"bufferView":1,"componentType":5126,"count":357,"type":"VEC3"},{"bufferView":2,"componentType":5123,"count":2043,"type":"SCALAR"},{"bufferView":3,"componentType":5126,"count":1483,"type":"VEC3","min":[-0.27156082,-0.39470795,1.117427],"max":[0.1548415,0.12914112,1.6610757]},{"bufferView":4,"componentType":5126,"count":1483,"type":"VEC3"},{"bufferView":5,"componentType":5123,"count":8727,"type":"SCALAR"},{"bufferView":6,"componentType":5126,"count":256,"type":"VEC3","min":[-0.32802117,-0.23297706,0.94782716],"max":[0.23731057,0.11103531,1.266652]},{"bufferView":7,"componentType":5126,"count":256,"type":"VEC3"},{"bufferView":8,"componentType":5123,"count":1134,"type":"SCALAR"},{"bufferView":9,"componentType":5126,"count":403,"type":"VEC3","min":[-0.47675437,-0.27441934,-1.1571764],"max":[0.3599081,0.17686075,-0.503804]},{"bufferView":10,"componentType":5126,"count":403,"type":"VEC3"},{"bufferView":11,"componentType":5123,"count":2010,"type":"SCALAR"},{"bufferView":12,"componentType":5126,"count":368,"type":"VEC3","min":[-0.9338082,-0.14888145,-0.22208688],"max":[-0.42787927,0.24703768,0.7431476]},{"bufferView":13,"componentType":5126,"count":368,"type":"VEC3"},{"bufferView":14,"componentType":5123,"count":2001,"type":"SCALAR"},{"bufferView":15,"componentType":5126,"count":836,"type":"VEC3","min":[-0.44561717,-0.3119929,-0.21777369],"max":[0.33173215,0.2924912,1.0741389]},{"bufferView":16,"componentType":5126,"count":836,"type":"VEC3"},{"bufferView":17,"componentType":5123,"count":4293,"type":"SCALAR"},{"bufferView":18,"componentType":5126,"count":294,"type":"VEC3","min":[-0.47642407,-0.3040693,-0.51111525],"max":[0.359555,0.2608829,-0.042780638]},{"bufferView":19,"componentType":5126,"count":294,"type":"VEC3"},{"bufferView":20,"componentType":5123,"count":1356,"type":"SCALAR"},{"bufferView":21,"componentType":5126,"count":684,"type":"VEC3","min":[-0.501697,-0.41961223,-2.2348788],"max":[0.38361818,0.18707538,-1.9976151]},{"bufferView":22,"componentType":5126,"count":684,"type":"VEC3"},{"bufferView":23,"componentType":5123,"count":3924,"type":"SCALAR"},{"bufferView":24,"componentType":5126,"count":185,"type":"VEC3","min":[-0.40756816,-0.16119197,-1.3675911],"max":[0.29081187,0.16386777,-1.1291989]},{"bufferView":25,"componentType":5126,"count":185,"type":"VEC3"},{"bufferView":26,"componentType":5123,"count":726,"type":"SCALAR"},{"bufferView":27,"componentType":5126,"count":447,"type":"VEC3","min":[-0.43960103,-0.0810442,-1.9976155],"max":[0.32446313,0.23442101,-1.1708243]},{"bufferView":28,"componentType":5126,"count":447,"type":"VEC3"},{"bufferView":29,"componentType":5123,"count":2328,"type":"SCALAR"},{"bufferView":30,"componentType":5126,"count":125,"type":"VEC3","min":[-0.6227304,-0.16989425,0.6373712],"max":[-0.39484328,0.24696597,0.9965124]},{"bufferView":31,"componentType":5126,"count":125,"type":"VEC3"},{"bufferView":32,"componentType":5123,"count":534,"type":"SCALAR"},{"bufferView":33,"componentType":5126,"count":120,"type":"VEC3","min":[0.29451475,-0.16382468,0.6344511],"max":[0.5096387,0.2440337,0.99086475]},{"bufferView":34,"componentType":5126,"count":120,"type":"VEC3"},{"bufferView":35,"componentType":5123,"count":510,"type":"SCALAR"},{"bufferView":36,"componentType":5126,"count":372,"type":"VEC3","min":[0.31159836,-0.13690981,-0.23585999],"max":[0.81799906,0.24206543,0.72836715]},{"bufferView":37,"componentType":5126,"count":372,"type":"VEC3"},{"bufferView":38,"componentType":5123,"count":2025,"type":"SCALAR"},{"bufferView":39,"componentType":5126,"count":360,"type":"VEC3","min":[-0.9676227,-0.17253484,-0.627248],"max":[-0.777966,0.052046575,-0.20898117]},{"bufferView":40,"componentType":5126,"count":360,"type":"VEC3"},{"bufferView":41,"componentType":5123,"count":2067,"type":"SCALAR"},{"bufferView":42,"componentType":5126,"count":403,"type":"VEC3","min":[-0.47675437,-0.27441934,-1.1571764],"max":[0.3599081,0.17686075,-0.503804]},{"bufferView":43,"componentType":5126,"count":403,"type":"VEC3"},{"bufferView":44,"componentType":5123,"count":2010,"type":"SCALAR"},{"bufferView":45,"componentType":5126,"count":684,"type":"VEC3","min":[-0.501697,-0.41961223,-2.2348788],"max":[0.38361818,0.18707538,-1.9976151]},{"bufferView":46,"componentType":5126,"count":684,"type":"VEC3"},{"bufferView":47,"componentType":5123,"count":3924,"type":"SCALAR"},{"bufferView":48,"componentType":5126,"count":185,"type":"VEC3","min":[-0.40756816,-0.16119197,-1.3675911],"max":[0.29081187,0.16386777,-1.1291989]},{"bufferView":49,"componentType":5126,"count":185,"type":"VEC3"},{"bufferView":50,"componentType":5123,"count":726,"type":"SCALAR"},{"bufferView":51,"componentType":5126,"count":447,"type":"VEC3","min":[-0.43960103,-0.0810442,-1.9976155],"max":[0.32446313,0.23442101,-1.1708243]},{"bufferView":52,"componentType":5126,"count":447,"type":"VEC3"},{"bufferView":53,"componentType":5123,"count":2328,"type":"SCALAR"}],"bufferViews":[{"target":34962,"buffer":0,"byteLength":4284,"byteOffset":0},{"target":34962,"buffer":0,"byteLength":4284,"byteOffset":4284},{"target":34963,"buffer":0,"byteLength":4086,"byteOffset":8568},{"target":34962,"buffer":0,"byteLength":17796,"byteOffset":12656},{"target":34962,"buffer":0,"byteLength":17796,"byteOffset":30452},{"target":34963,"buffer":0,"byteLength":17454,"byteOffset":48248},{"target":34962,"buffer":0,"byteLength":3072,"byteOffset":65704},{"target":34962,"buffer":0,"byteLength":3072,"byteOffset":68776},{"target":34963,"buffer":0,"byteLength":2268,"byteOffset":71848},{"target":34962,"buffer":0,"byteLength":4836,"byteOffset":74116},{"target":34962,"buffer":0,"byteLength":4836,"byteOffset":78952},{"target":34963,"buffer":0,"byteLength":4020,"byteOffset":83788},{"target":34962,"buffer":0,"byteLength":4416,"byteOffset":87808},{"target":34962,"buffer":0,"byteLength":4416,"byteOffset":92224},{"target":34963,"buffer":0,"byteLength":4002,"byteOffset":96640},{"target":34962,"buffer":0,"byteLength":10032,"byteOffset":100644},{"target":34962,"buffer":0,"byteLength":10032,"byteOffset":110676},{"target":34963,"buffer":0,"byteLength":8586,"byteOffset":120708},{"target":34962,"buffer":0,"byteLength":3528,"byteOffset":129296},{"target":34962,"buffer":0,"byteLength":3528,"byteOffset":132824},{"target":34963,"buffer":0,"byteLength":2712,"byteOffset":136352},{"target":34962,"buffer":0,"byteLength":8208,"byteOffset":139064},{"target":34962,"buffer":0,"byteLength":8208,"byteOffset":147272},{"target":34963,"buffer":0,"byteLength":7848,"byteOffset":155480},{"target":34962,"buffer":0,"byteLength":2220,"byteOffset":163328},{"target":34962,"buffer":0,"byteLength":2220,"byteOffset":165548},{"target":34963,"buffer":0,"byteLength":1452,"byteOffset":167768},{"target":34962,"buffer":0,"byteLength":5364,"byteOffset":169220},{"target":34962,"buffer":0,"byteLength":5364,"byteOffset":174584},{"target":34963,"buffer":0,"byteLength":4656,"byteOffset":179948},{"target":34962,"buffer":0,"byteLength":1500,"byteOffset":184604},{"target":34962,"buffer":0,"byteLength":1500,"byteOffset":186104},{"target":34963,"buffer":0,"byteLength":1068,"byteOffset":187604},{"target":34962,"buffer":0,"byteLength":1440,"byteOffset":188672},{"target":34962,"buffer":0,"byteLength":1440,"byteOffset":190112},{"target":34963,"buffer":0,"byteLength":1020,"byteOffset":191552},{"target":34962,"buffer":0,"byteLength":4464,"byteOffset":192572},{"target":34962,"buffer":0,"byteLength":4464,"byteOffset":197036},{"target":34963,"buffer":0,"byteLength":4050,"byteOffset":201500},{"target":34962,"buffer":0,"byteLength":4320,"byteOffset":205552},{"target":34962,"buffer":0,"byteLength":4320,"byteOffset":209872},{"target":34963,"buffer":0,"byteLength":4134,"byteOffset":214192},{"target":34962,"buffer":0,"byteLength":4836,"byteOffset":218328},{"target":34962,"buffer":0,"byteLength":4836,"byteOffset":223164},{"target":34963,"buffer":0,"byteLength":4020,"byteOffset":228000},{"target":34962,"buffer":0,"byteLength":8208,"byteOffset":232020},{"target":34962,"buffer":0,"byteLength":8208,"byteOffset":240228},{"target":34963,"buffer":0,"byteLength":7848,"byteOffset":248436},{"target":34962,"buffer":0,"byteLength":2220,"byteOffset":256284},{"target":34962,"buffer":0,"byteLength":2220,"byteOffset":258504},{"target":34963,"buffer":0,"byteLength":1452,"byteOffset":260724},{"target":34962,"buffer":0,"byteLength":5364,"byteOffset":262176},{"target":34962,"buffer":0,"byteLength":5364,"byteOffset":267540},{"target":34963,"buffer":0,"byteLength":4656,"byteOffset":272904}],"buffers":[{"byteLength":277560,"uri":"data:application/octet-stream;base64,"}]}